<?xml version="1.0" encoding="UTF-8" standalone="no"?>
<svg
   id="svg41491"
   viewBox="0 0 720.55286 65.015991"
   height="65.015991"
   width="720.55286"
   version="1.1"
   sodipodi:docname="logo-no-slogan.svg"
   xmlns:inkscape="http://www.inkscape.org/namespaces/inkscape"
   xmlns:sodipodi="http://sodipodi.sourceforge.net/DTD/sodipodi-0.dtd"
   xmlns="http://www.w3.org/2000/svg"
   xmlns:svg="http://www.w3.org/2000/svg"
   xmlns:rdf="http://www.w3.org/1999/02/22-rdf-syntax-ns#"
   xmlns:cc="http://creativecommons.org/ns#"
   xmlns:dc="http://purl.org/dc/elements/1.1/">
  <sodipodi:namedview
     id="namedview1"
     pagecolor="#ffffff"
     bordercolor="#000000"
     borderopacity="0.25"
     inkscape:showpageshadow="2"
     inkscape:pageopacity="0.0"
     inkscape:pagecheckerboard="0"
     inkscape:deskcolor="#d1d1d1" />
  <metadata
     id="metadata41497">
    <rdf:rdf>
      <cc:work
         rdf:about="">
        <dc:format>image/svg+xml</dc:format>
        <dc:type
           rdf:resource="http://purl.org/dc/dcmitype/StillImage" />
      </cc:work>
    </rdf:rdf>
  </metadata>
  <defs
     id="defs41495" />
  <linearGradient
     spreadMethod="pad"
     y2="0.30000001"
     x2="-0.1"
     y1="1.2"
     x1="0.30000001"
     id="3d_gradient2-logo-76ceb8bc-5752-4e2c-ab00-227fe8aff3de">
    <stop
       id="stop41472"
       stop-opacity="1"
       stop-color="#ffffff"
       offset="0%" />
    <stop
       id="stop41474"
       stop-opacity="1"
       stop-color="#000000"
       offset="100%" />
  </linearGradient>
  <linearGradient
     gradientTransform="rotate(-30)"
     spreadMethod="pad"
     y2="0.30000001"
     x2="-0.1"
     y1="1.2"
     x1="0.30000001"
     id="3d_gradient3-logo-76ceb8bc-5752-4e2c-ab00-227fe8aff3de">
    <stop
       id="stop41477"
       stop-opacity="1"
       stop-color="#ffffff"
       offset="0%" />
    <stop
       id="stop41479"
       stop-opacity="1"
       stop-color="#cccccc"
       offset="50%" />
    <stop
       id="stop41481"
       stop-opacity="1"
       stop-color="#000000"
       offset="100%" />
  </linearGradient>
  <g
     id="logo-group"
     transform="translate(-151.72356,-329.59201)">
    <g
       id="logo-center">
      <g
         id="title"
         style="font-style:normal;font-weight:normal;font-size:72px;line-height:1;font-family:'Brandmark Sans 25';font-variant-ligatures:normal;text-align:center;text-anchor:middle">
        <path
           id="path41572"
           style="font-style:normal;font-weight:normal;font-size:72px;line-height:1;font-family:'Brandmark Sans 25';font-variant-ligatures:normal;text-align:center;text-anchor:middle"
           d="m 324.81575,-50.4 h -43.704 c -0.792,0 -1.512,0.648 -1.512,1.512 v 7.128 c 0,0.864 0.72,1.512 1.512,1.512 h 43.704 c 2.736,0 4.968,2.232 4.968,4.968 0,2.736 -2.232,4.968 -4.968,4.968 h -43.704 c -0.792,0 -1.512,0.72 -1.512,1.512 v 27.288 c 0,0.792 0.72,1.512 1.512,1.512 h 7.128 c 0.864,0 1.512,-0.72 1.512,-1.512 v -18.576 h 35.064 c 8.352,0 15.192,-6.84 15.192,-15.192 0,-8.352 -6.84,-15.12 -15.192,-15.12 z"
           stroke-width="0"
           stroke-linejoin="miter"
           stroke-miterlimit="2"
           fill="#b779e7"
           stroke="#b779e7"
           transform="matrix(1.29,0,0,1.29,-208.96011,394.608)"
           inkscape:export-filename="path41572.svg"
           inkscape:export-xdpi="96"
           inkscape:export-ydpi="96" />
        <path
           id="path41574"
           style="font-style:normal;font-weight:normal;font-size:72px;line-height:1;font-family:'Brandmark Sans 25';font-variant-ligatures:normal;text-align:center;text-anchor:middle"
           d="m 405.20713,-50.4 h -57.45601 c -0.792,0 -1.512,0.648 -1.512,1.512 v 7.128 c 0,0.864 0.72,1.512 1.512,1.512 h 57.45601 c 0.86399,0 1.584,-0.648 1.584,-1.512 v -7.128 c 0,-0.864 -0.72001,-1.512 -1.584,-1.512 z m -58.96801,48.888 c 0,0.792 0.72,1.512 1.512,1.512 h 57.45601 c 0.86399,0 1.584,-0.72 1.584,-1.512 V -8.64 c 0,-0.864 -0.72001,-1.512 -1.584,-1.512 h -48.81601 v -9.936 h 38.664 c 0.864,0 1.51201,-0.72 1.51201,-1.584 v -7.056 c 0,-0.864 -0.64801,-1.584 -1.51201,-1.584 h -47.304 c -0.792,0 -1.512,0.72 -1.512,1.584 z"
           stroke-width="0"
           stroke-linejoin="miter"
           stroke-miterlimit="2"
           fill="#a87fe4"
           stroke="#a87fe4"
           transform="matrix(1.29,0,0,1.29,-189.61011,394.608)" />
        <path
           id="path41576"
           style="font-style:normal;font-weight:normal;font-size:72px;line-height:1;font-family:'Brandmark Sans 25';font-variant-ligatures:normal;text-align:center;text-anchor:middle"
           d="m 432.90125,-40.248 h 38.88 c 0.864,0 1.584,-0.648 1.584,-1.512 v -7.128 c 0,-0.792 -0.72,-1.512 -1.584,-1.512 h -38.88 c -11.088,0 -20.088,9 -20.088,20.088 v 10.224 c 0,11.088 9,20.088 20.088,20.088 h 38.88 c 0.864,0 1.584,-0.72 1.584,-1.512 V -8.64 c 0,-0.864 -0.72,-1.512 -1.584,-1.512 h -38.88 c -5.472,0 -9.936,-4.464 -9.936,-9.936 v -10.224 c 0,-5.472 4.464,-9.936 9.936,-9.936 z"
           stroke-width="0"
           stroke-linejoin="miter"
           stroke-miterlimit="2"
           fill="#9986e1"
           stroke="#9986e1"
           transform="matrix(1.29,0,0,1.29,-170.26011,394.608)" />
        <path
           id="path41578"
           style="font-style:normal;font-weight:normal;font-size:72px;line-height:1;font-family:'Brandmark Sans 25';font-variant-ligatures:normal;text-align:center;text-anchor:middle"
           d="m 523.54363,-50.4 h -24.40801 c -11.088,0 -20.088,9 -20.088,20.088 v 10.224 c 0,11.088 9,20.088 20.088,20.088 h 24.40801 c 11.08799,0 20.08799,-9 20.08799,-20.088 v -10.224 c 0,-11.088 -9,-20.088 -20.08799,-20.088 z m -34.344,30.312 v -10.224 c 0,-5.472 4.464,-9.936 9.93599,-9.936 h 24.40801 c 5.47199,0 9.936,4.464 9.936,9.936 v 10.224 c 0,5.472 -4.46401,9.936 -9.936,9.936 h -24.40801 c -5.47199,0 -9.93599,-4.464 -9.93599,-9.936 z"
           stroke-width="0"
           stroke-linejoin="miter"
           stroke-miterlimit="2"
           fill="#8b8cde"
           stroke="#8b8cde"
           transform="matrix(1.29,0,0,1.29,-150.91011,394.608)" />
        <path
           id="path41580"
           style="font-style:normal;font-weight:normal;font-size:72px;line-height:1;font-family:'Brandmark Sans 25';font-variant-ligatures:normal;text-align:center;text-anchor:middle"
           d="m 552.97475,-28.8 v 27.288 c 0,0.792 0.72,1.512 1.512,1.512 h 7.128 c 0.864,0 1.512,-0.72 1.512,-1.512 v -18.576 h 25.776 c 2.448,0 4.752,1.296 5.976,3.456 l 8.928,15.84 c 0.288,0.504 0.792,0.792 1.368,0.792 h 8.208 c 1.152,0 1.872,-1.296 1.296,-2.304 l -10.728,-18.936 c 5.544,-2.232 9.432,-7.704 9.432,-14.04 0,-8.352 -6.84,-15.12 -15.192,-15.12 h -43.704 c -0.792,0 -1.512,0.648 -1.512,1.512 v 7.128 c 0,0.864 0.72,1.512 1.512,1.512 h 43.704 c 2.736,0 4.968,2.232 4.968,4.968 0,2.736 -2.232,4.968 -4.968,4.968 h -43.704 c -0.792,0 -1.512,0.72 -1.512,1.512 z"
           stroke-width="0"
           stroke-linejoin="miter"
           stroke-miterlimit="2"
           fill="#7c92da"
           stroke="#7c92da"
           transform="matrix(1.29,0,0,1.29,-131.56011,394.608)" />
        <path
           id="path41582"
           style="font-style:normal;font-weight:normal;font-size:72px;line-height:1;font-family:'Brandmark Sans 25';font-variant-ligatures:normal;text-align:center;text-anchor:middle"
           d="m 681.39463,-50.4 h -57.45601 c -0.792,0 -1.512,0.648 -1.512,1.512 v 7.128 c 0,0.864 0.72,1.512 1.512,1.512 h 57.45601 c 0.86399,0 1.58399,-0.648 1.58399,-1.512 v -7.128 c 0,-0.864 -0.72,-1.512 -1.58399,-1.512 z m -58.96801,48.888 c 0,0.792 0.72,1.512 1.512,1.512 h 57.45601 c 0.86399,0 1.58399,-0.72 1.58399,-1.512 V -8.64 c 0,-0.864 -0.72,-1.512 -1.58399,-1.512 h -48.81601 v -9.936 h 38.664 c 0.864,0 1.51201,-0.72 1.51201,-1.584 v -7.056 c 0,-0.864 -0.64801,-1.584 -1.51201,-1.584 h -47.304 c -0.792,0 -1.512,0.72 -1.512,1.584 z"
           stroke-width="0"
           stroke-linejoin="miter"
           stroke-miterlimit="2"
           fill="#6d99d7"
           stroke="#6d99d7"
           transform="matrix(1.29,0,0,1.29,-112.21011,394.608)" />
        <path
           id="path41584"
           style="font-style:normal;font-weight:normal;font-size:72px;line-height:1;font-family:'Brandmark Sans 25';font-variant-ligatures:normal;text-align:center;text-anchor:middle"
           d="m 746.65588,-50.4 h -57.96001 c -0.792,0 -1.512,0.648 -1.512,1.512 v 7.128 c 0,0.864 0.72,1.512 1.512,1.512 h 23.904 v 38.736 c 0,0.792 0.64801,1.512 1.51201,1.512 h 7.12799 c 0.86401,0 1.51201,-0.72 1.51201,-1.512 v -38.736 h 23.904 c 0.79199,0 1.51199,-0.648 1.51199,-1.512 v -7.128 c 0,-0.864 -0.72,-1.512 -1.51199,-1.512 z"
           stroke-width="0"
           stroke-linejoin="miter"
           stroke-miterlimit="2"
           fill="#5e9fd4"
           stroke="#5e9fd4"
           transform="matrix(1.29,0,0,1.29,-92.860115,394.608)" />
      </g>
    </g>
  </g>
</svg>
