<?xml version="1.0" encoding="UTF-8"?>
<!-- Svg Vector Icons : http://www.onlinewebfonts.com/icon -->
<!DOCTYPE svg PUBLIC "-//W3C//DTD SVG 1.1//EN" "http://www.w3.org/Graphics/SVG/1.1/DTD/svg11.dtd">
<svg version="1.1" xmlns="http://www.w3.org/2000/svg" xmlns:xlink="http://www.w3.org/1999/xlink" x="0px" y="0px"
     viewBox="0 0 256 256" enable-background="new 0 0 256 256" xml:space="preserve">
<metadata> Svg Vector Icons : http://www.onlinewebfonts.com/icon </metadata>
    <g><g><g><path fill="#000000" d="M35.8,10.6c-0.6,0.2-1.3,1-1.6,1.7c-0.7,1.7-0.7,40.9,0,42.6c0.3,0.7,1.1,1.5,1.8,1.8c1.7,0.8,182.5,0.8,184.1,0c0.7-0.3,1.5-1.1,1.8-1.8c0.7-1.7,0.7-40.9,0-42.6c-0.3-0.7-1.1-1.5-1.8-1.8C218.5,9.8,37.3,9.8,35.8,10.6z M55.4,17.4l1.3,1v15.2v15.2l-1.3,1c-1.8,1.4-3.9,1.3-5.4-0.2l-1.2-1.2V33.6V18.8l1.2-1.2C51.6,16.1,53.7,16,55.4,17.4z M73.2,17.6l1.2,1.2v14.8v14.8l-1.2,1.2c-0.7,0.8-1.8,1.2-2.7,1.2s-2-0.4-2.7-1.2l-1.2-1.2V33.6V18.8l1.2-1.2c0.7-0.8,1.8-1.2,2.7-1.2S72.5,16.8,73.2,17.6z M90.9,17.6l1.2,1.2v14.8v14.8l-1.2,1.2c-1.5,1.5-3.6,1.6-5.4,0.2l-1.3-1V33.6V18.4l1.3-1C87.3,16,89.4,16.1,90.9,17.6z M108.6,17.6l1.2,1.2v14.8v14.8l-1.2,1.2c-1.5,1.6-3.9,1.6-5.5,0.1l-1.1-1v-15c0-14.7,0-15,1.1-16.1C104.5,15.9,107,16,108.6,17.6z M173.7,20.6c1.7,0.9,2.7,3.1,2.3,5.3c-0.5,3-3.4,4.6-6.4,3.7c-2.2-0.6-3.5-2.5-3.5-5c0-1.5,0.3-2.2,1.6-3.3C169.5,19.6,171.5,19.4,173.7,20.6z M191.9,20.5c3.8,2,3.1,7.7-1.2,9.1c-2.3,0.7-4.8-0.4-5.9-2.8c-1-2.2-0.6-4.2,1.3-5.8C187.7,19.7,189.8,19.5,191.9,20.5z M209.8,20.4c2.7,1.4,3.6,4.9,2,7.3c-1,1.5-3.5,2.5-5.2,2.2c-1.5-0.3-3.6-2.4-4-4c-0.4-1.5,0.7-4.1,2.2-5.2C206.1,19.7,208.2,19.6,209.8,20.4z"/><path
            fill="#000000"
            d="M35.8,73.5c-0.6,0.2-1.3,1-1.6,1.7c-0.7,1.7-0.7,40.9,0,42.6c0.3,0.7,1.1,1.5,1.8,1.8c1.7,0.8,182.5,0.8,184.1,0c0.7-0.3,1.5-1.1,1.8-1.8c0.7-1.7,0.7-40.9,0-42.6c-0.3-0.7-1.1-1.5-1.8-1.8C218.5,72.7,37.3,72.8,35.8,73.5z M55.4,80.3l1.3,1v15.2v15.2l-1.3,1c-1.8,1.4-3.9,1.3-5.4-0.2l-1.2-1.2V96.5V81.7l1.2-1.2C51.6,79,53.7,79,55.4,80.3z M73.2,80.5l1.2,1.2v14.8v14.8l-1.2,1.2c-0.7,0.8-1.8,1.2-2.7,1.2s-2-0.4-2.7-1.2l-1.2-1.2V96.5V81.7l1.2-1.2c0.7-0.8,1.8-1.2,2.7-1.2S72.5,79.7,73.2,80.5z M90.9,80.5l1.2,1.2v14.8v14.8l-1.2,1.2c-1.5,1.5-3.6,1.6-5.4,0.2l-1.3-1V96.5V81.3l1.3-1C87.3,79,89.4,79,90.9,80.5z M108.6,80.5l1.2,1.2v14.8v14.8l-1.2,1.2c-1.5,1.6-3.9,1.6-5.5,0.1l-1.1-1v-15c0-14.7,0-15,1.1-16.1C104.5,78.9,107,78.9,108.6,80.5z M173.7,83.5c2.6,1.3,3.2,5.8,1.1,7.8c-1.8,1.6-3.8,1.9-5.8,1c-3.4-1.6-4-5.8-1.1-8.3C169.6,82.6,171.6,82.4,173.7,83.5z M191.9,83.4c3.8,2,3.1,7.7-1.2,9.1c-2.3,0.7-4.8-0.4-5.9-2.8c-1-2.1-0.7-3.7,1.2-5.6C187.6,82.5,189.6,82.3,191.9,83.4z M210.4,83.6c3.2,2.6,2.8,7.2-1,8.7c-0.8,0.3-2.1,0.5-2.9,0.4c-1.5-0.3-3.6-2.4-4-4c-0.4-1.5,0.7-4.1,2.2-5.2C206.2,82.5,209.1,82.5,210.4,83.6z"/><path
            fill="#000000"
            d="M35.8,136.4c-0.6,0.2-1.3,1-1.6,1.7c-0.7,1.7-0.7,40.9,0,42.6c0.3,0.7,1.1,1.5,1.8,1.8c1.7,0.8,182.5,0.8,184.1,0c0.7-0.3,1.5-1.1,1.8-1.8c0.7-1.7,0.7-40.9,0-42.6c-0.3-0.7-1.1-1.5-1.8-1.8C218.5,135.6,37.3,135.7,35.8,136.4z M55.5,143.5l1.2,1.2v14.8v14.8l-1.2,1.2c-0.7,0.8-1.8,1.2-2.7,1.2c-0.9,0-2-0.4-2.7-1.2l-1.2-1.2v-14.8v-14.8l1.2-1.2c0.7-0.8,1.8-1.2,2.7-1.2C53.7,142.2,54.8,142.7,55.5,143.5z M73.2,143.5l1.2,1.2v14.8v14.8l-1.2,1.2c-0.7,0.8-1.8,1.2-2.7,1.2s-2-0.4-2.7-1.2l-1.2-1.2v-14.8v-14.8l1.2-1.2c0.7-0.8,1.8-1.2,2.7-1.2S72.5,142.7,73.2,143.5z M90.9,143.5l1.2,1.2v14.8v14.8l-1.2,1.2c-1.5,1.5-3.6,1.6-5.4,0.2l-1.3-1v-15.2v-15.2l1.3-1C87.3,141.9,89.4,141.9,90.9,143.5z M108.6,143.5l1.2,1.2v14.8v14.8l-1.2,1.2c-1.5,1.5-3.6,1.6-5.4,0.2l-1.3-1v-15.1c0-14.7,0-15,1.1-16.2C104.5,141.8,107,141.8,108.6,143.5z M173.7,146.4c2.5,1.3,3.1,4.4,1.6,7c-2.1,3.4-7.2,3.1-8.7-0.6c-1-2.3-0.5-4.3,1.4-5.8C169.5,145.5,171.6,145.3,173.7,146.4z M191.9,146.4c3.8,2,3.1,7.7-1.2,9.1c-2.3,0.7-4.8-0.4-5.9-2.8c-1-2.2-0.6-4.2,1.3-5.8C187.7,145.5,189.8,145.3,191.9,146.4z M211,147.2c2.7,2.6,1.8,6.6-1.6,8.1c-2,0.8-3.8,0.4-5.4-1.1c-1.6-1.7-1.9-3.3-1.1-5.3C204.4,145.4,208.4,144.5,211,147.2z"/><path
            fill="#000000"
            d="M35.8,199.3c-0.6,0.2-1.3,1-1.6,1.7c-0.7,1.7-0.7,41,0,42.6c0.3,0.7,1.1,1.5,1.8,1.8c1.7,0.8,182.5,0.8,184.1,0c0.7-0.3,1.5-1.1,1.8-1.8c0.7-1.7,0.7-40.9,0-42.6c-0.3-0.7-1.1-1.5-1.8-1.8C218.5,198.6,37.3,198.6,35.8,199.3z M55.4,206.2l1.3,1v15.2v15.2l-1.3,1c-1.8,1.4-3.9,1.3-5.4-0.2l-1.2-1.2v-14.8v-14.8l1.2-1.2C51.6,204.9,53.7,204.8,55.4,206.2z M73.2,206.4l1.2,1.2v14.8v14.8l-1.2,1.2c-0.7,0.8-1.8,1.2-2.7,1.2s-2-0.4-2.7-1.2l-1.2-1.2v-14.8v-14.8l1.2-1.2c0.7-0.8,1.8-1.2,2.7-1.2S72.5,205.6,73.2,206.4z M90.9,206.4l1.2,1.2v14.8v14.8l-1.2,1.2c-1.5,1.5-3.6,1.6-5.4,0.2l-1.3-1v-15.2v-15.2l1.3-1C87.3,204.8,89.4,204.9,90.9,206.4z M108.6,206.4l1.2,1.2v14.8v14.8l-1.2,1.2c-1.5,1.6-3.9,1.6-5.5,0.1l-1.1-1v-15c0-14.7,0-15,1.1-16.1C104.5,204.7,107,204.8,108.6,206.4z M173.7,209.3c1.7,0.9,2.7,3.1,2.3,5.3c-0.9,4.8-7.6,5.5-9.4,1c-1-2.3-0.5-4.3,1.4-5.8C169.6,208.4,171.6,208.2,173.7,209.3z M191.9,209.3c2.4,1.3,3.2,4.9,1.7,7.1c-2.3,3.2-7.1,2.8-8.8-0.7C182.7,211.3,187.4,207,191.9,209.3z M209.8,209.1c2.7,1.4,3.6,4.9,2,7.3c-1,1.5-3.5,2.5-5.2,2.2c-1.5-0.3-3.6-2.4-4-4c-0.4-1.5,0.7-4.1,2.2-5.2C206.1,208.4,208.2,208.3,209.8,209.1z"/></g></g></g>
</svg>