<?xml version="1.0" encoding="UTF-8"?>
<!-- Svg Vector Icons : http://www.onlinewebfonts.com/icon -->
<!DOCTYPE svg PUBLIC "-//W3C//DTD SVG 1.1//EN" "http://www.w3.org/Graphics/SVG/1.1/DTD/svg11.dtd">
<svg version="1.1" xmlns="http://www.w3.org/2000/svg" xmlns:xlink="http://www.w3.org/1999/xlink" x="0px" y="0px"
     viewBox="0 0 256 256" enable-background="new 0 0 256 256" xml:space="preserve">
<metadata> Svg Vector Icons : http://www.onlinewebfonts.com/icon </metadata>
    <g><g><g><path fill="#000000" d="M77.5,10.3C65.9,12.1,56.8,20,53.2,31.8c-0.9,3-0.9,7.4-0.9,96.3c0,88.9,0.1,93.3,0.9,96.3c3.2,10.5,10.3,17.5,20.7,20.7c2.9,0.9,6.1,0.9,54,0.9h50.9l3.7-1.2c9.8-3.1,16.8-10.2,20-20l1.2-3.7V128c0-88.9-0.1-93.3-0.9-96.3c-3.2-10.3-10-17.2-20.4-20.7c-2.7-0.9-5.8-1-52.5-1.1C102.6,10,79,10.1,77.5,10.3z M143.7,27.9c1.6,1.5,1.6,4.4,0.1,6.1c-1.1,1.2-1.2,1.2-15.7,1.2c-14.1,0-14.5-0.1-15.7-1.2c-1.6-1.5-1.6-4.4-0.1-6.1c1.1-1.2,1.2-1.2,15.7-1.2C142.1,26.7,142.5,26.7,143.7,27.9z M178.7,123.8v71.8H128H77.3v-71.8V52H128h50.7V123.8z M133.1,214c3.5,2.5,4.4,8.6,1.8,12.1c-2.5,3.5-8.6,4.4-12.1,1.8c-4.9-3.4-4.2-11.9,1-14.6C126.3,212.1,131,212.4,133.1,214z"/></g></g></g>
</svg>