<?xml version="1.0" encoding="UTF-8"?>
<!-- Svg Vector Icons : http://www.onlinewebfonts.com/icon -->
<!DOCTYPE svg PUBLIC "-//W3C//DTD SVG 1.1//EN" "http://www.w3.org/Graphics/SVG/1.1/DTD/svg11.dtd">
<svg version="1.1" xmlns="http://www.w3.org/2000/svg" xmlns:xlink="http://www.w3.org/1999/xlink" x="0px" y="0px"
     viewBox="0 0 256 256" enable-background="new 0 0 256 256" xml:space="preserve">
<metadata> Svg Vector Icons : http://www.onlinewebfonts.com/icon </metadata>
    <g><g><g><path fill="#000000" d="M24.6,44.2c-6,1.5-11,5.3-13.4,10.1L10,56.8v69.8c0,67.8,0.1,69.8,1,72.5c2,5.5,7,10.5,12.5,12.5c2.7,1,5,1,104.4,1c99.4,0,101.7,0,104.4-1c5.3-2,10.2-6.8,12.4-12.2c1-2.5,1-4.1,1.2-76.6c0.2-82,0.4-76.1-3.2-78.3c-1.6-1-3.5-1-108.6-1C50.9,43.5,26.7,43.6,24.6,44.2z M176.3,60.9c1.5,1.5,1.8,2.2,1.8,3.9c0,3.6-1.4,5.4-4.9,6.5c-1.6,0.5-4-0.3-5.5-1.8c-4-3.9-1.1-10.4,4.5-10.4C174.2,59.1,174.8,59.4,176.3,60.9z M195.9,60c1.6,1,3.1,3.6,3.1,5.5c0,0.6-0.5,2-1,2.9c-4.1,6.8-14.4,0.9-10.7-6.2C188.7,59.3,192.9,58.2,195.9,60z M216.2,59.9c4.9,2.5,3.9,9.7-1.5,11.3c-4,1.2-7.6-1.8-7.6-6.2c0-2,0.3-2.5,1.9-4.1C211.2,58.9,213.6,58.5,216.2,59.9z M164.5,91.4l68.7,0.4v51.6c0,51.3,0,51.6-1.1,53c-0.6,0.8-1.7,1.9-2.5,2.5l-1.4,1.1H127.9H27.6l-1.4-1.1c-0.8-0.6-1.9-1.7-2.5-2.5c-1.1-1.4-1.1-1.8-1.3-53c-0.1-28.4-0.1-51.8,0.1-52.1C22.7,90.7,33.8,90.7,164.5,91.4z"/><path
            fill="#000000"
            d="M116.4,102.2c-7.7,1.7-14.5,5.3-20.3,10.9c-8.7,8.5-13.1,19.6-12.4,31.7c0.7,14.9,9.5,28.1,23.2,34.7c4.3,2.1,10.7,3.9,15.1,4.1l3.1,0.2v-4.7v-4.7l-2.4-0.2c-1.3-0.1-2.6-0.4-2.9-0.7c-0.7-0.6-2.1-5.8-3-11.9l-0.7-4.3h4.6h4.7v-2.6v-2.6l-4.8-0.2l-4.9-0.2l-0.2-9.3l-0.1-9.2l3.5-0.4c4.8-0.5,14.3-0.1,15.9,0.7c0.7,0.4,2.2,1.5,3.3,2.6l1.9,1.9v-2.2c0-1.8,0.2-2.2,1-2.2c1.5,0,10.9,1.9,13.3,2.7l2.1,0.7l0.2,5.3l0.2,5.3l-2.2,0.7l-2.2,0.7l5.1,4.7c2.8,2.6,5.3,4.8,5.5,4.9c0.6,0.2,2.6-6.5,3.2-10.9c0.3-2.2,0.5-5.8,0.3-8.1c-1.4-18.7-14.7-33.9-33-37.6C128.7,101.3,120.9,101.3,116.4,102.2z M129.3,111.2c1.3,0.4,2.1,2.8,3.5,10.1c1.4,7,2.2,6.3-8,6.3H116l0.7-4.3c1.3-7.8,2.3-11.4,3.6-11.9C121.5,110.9,127.6,110.7,129.3,111.2z M112.2,117.7c-0.5,2.4-1,5.6-1.3,7.4c-0.3,2.6-0.5,3.1-1.5,3.3c-7.6,1.4-13.7,2.3-13.9,2.1c-0.6-0.5,3.2-6.2,6.2-9.4c3.1-3.3,9.2-7.6,10.7-7.6C112.9,113.5,112.8,114.8,112.2,117.7z M140.9,115.1c4,2.2,9.9,8.3,12,12.3c0.9,1.8,1.6,3.3,1.3,3.3c-0.2,0-2.7-0.5-5.4-1c-2.7-0.6-5.6-1-6.5-1c-0.8,0-1.8-0.2-2.1-0.4c-0.4-0.2-1.1-3.2-1.7-6.6c-0.6-3.5-1.3-6.7-1.4-7.2C136.5,113.1,137.6,113.3,140.9,115.1z M109.9,142.5v8.6h-1.4c-1.8,0-8.8-1.4-12.3-2.4l-2.7-0.8l-0.3-2.8c-0.2-1.6-0.2-4,0-5.4l0.4-2.6l3.2-0.9c4-1,10.1-2.2,11.9-2.3l1.3-0.1V142.5L109.9,142.5z M103.9,155.9l6.6,1.1l0.4,2.9c0.4,2.9,1.6,9.4,2.1,11.2c0.3,0.8,0.1,0.8-1.2,0.4c-5.2-2-12.3-8.6-15.1-14.1c-1.6-3.1-1.6-3.3-0.4-2.9C96.9,154.7,100.3,155.3,103.9,155.9z"/><path
            fill="#000000"
            d="M132.1,162.4v21.9l5.7-5.7l5.7-5.6l4.1,7.8l4.1,7.8l3-1.5l3-1.5l-3.9-7.6l-3.9-7.5l7.5-0.2l7.6-0.2l-14.6-13.3c-8-7.3-15.4-14-16.4-14.8l-1.8-1.5L132.1,162.4L132.1,162.4z"/></g></g></g>
</svg>