<?xml version="1.0" encoding="utf-8"?>
<!-- Svg Vector Icons : http://www.onlinewebfonts.com/icon -->
<!DOCTYPE svg PUBLIC "-//W3C//DTD SVG 1.1//EN" "http://www.w3.org/Graphics/SVG/1.1/DTD/svg11.dtd">
<svg version="1.1" xmlns="http://www.w3.org/2000/svg" xmlns:xlink="http://www.w3.org/1999/xlink" x="0px" y="0px" viewBox="0 0 256 256" enable-background="new 0 0 256 256" xml:space="preserve">
<metadata> Svg Vector Icons : http://www.onlinewebfonts.com/icon </metadata>
<g><g><path fill="#000000" d="M246,128c0-3.9-2.3-7.3-5.8-9l-23.6-10.7l23.6-10.7c3.5-1.6,5.8-5.1,5.8-9c0-3.9-2.3-7.3-5.8-9L132.1,30.5c-2.6-1.2-5.6-1.2-8.1,0L15.8,79.7c-3.5,1.6-5.8,5.1-5.8,9s2.3,7.3,5.8,9l23.6,10.7l-23.6,10.7c-3.5,1.6-5.8,5.1-5.8,8.9s2.3,7.3,5.8,9l23.6,10.7l-23.6,10.7c-3.5,1.6-5.8,5.1-5.8,8.9s2.3,7.3,5.8,9l108.2,49.2c1.3,0.6,2.7,0.9,4.1,0.9c1.4,0,2.8-0.3,4.1-0.9l108.2-49.2c3.5-1.6,5.8-5.1,5.8-9s-2.3-7.3-5.8-9l-23.6-10.7l23.6-10.7C243.7,135.4,246,131.9,246,128z M128,50.3l84.4,38.4l-23.3,10.6c-0.2,0.1-0.4,0.2-0.6,0.3L128,127L43.6,88.7L128,50.3z M123.9,146.8c1.3,0.6,2.7,0.9,4.1,0.9c1.4,0,2.8-0.3,4.1-0.9l60.8-27.6l19.5,8.9l-23.3,10.6c-0.2,0.1-0.4,0.2-0.6,0.3L128,166.4L43.6,128l19.5-8.9L123.9,146.8z M212.4,167.3L128,205.7l-84.4-38.4l19.5-8.9l60.8,27.6c1.3,0.6,2.7,0.9,4.1,0.9c1.4,0,2.8-0.3,4.1-0.9l60.8-27.6L212.4,167.3z"/></g></g>
</svg>