<?xml version="1.0" encoding="UTF-8" standalone="no"?>
<svg
   style="overflow:visible;opacity:1"
   id="__tmb-270"
   viewBox="0 0 519 119"
   version="1.1"
   sodipodi:docname="logo-with-text.svg"
   width="519"
   height="119"
   inkscape:version="1.2.2 (b0a8486541, 2022-12-01)"
   xmlns:inkscape="http://www.inkscape.org/namespaces/inkscape"
   xmlns:sodipodi="http://sodipodi.sourceforge.net/DTD/sodipodi-0.dtd"
   xmlns="http://www.w3.org/2000/svg"
   xmlns:svg="http://www.w3.org/2000/svg">
  <defs
     id="defs27" />
  <sodipodi:namedview
     id="namedview25"
     pagecolor="#ffffff"
     bordercolor="#000000"
     borderopacity="0.25"
     inkscape:showpageshadow="2"
     inkscape:pageopacity="0.0"
     inkscape:pagecheckerboard="0"
     inkscape:deskcolor="#d1d1d1"
     showgrid="false"
     inkscape:zoom="1.4142136"
     inkscape:cx="233.69879"
     inkscape:cy="68.942912"
     inkscape:window-width="1532"
     inkscape:window-height="1018"
     inkscape:window-x="2304"
     inkscape:window-y="19"
     inkscape:window-maximized="1"
     inkscape:current-layer="_ulBRnfcOj3VyDQUqUOEKd"
     showborder="false" />
  <rect
     x="0"
     y="0"
     width="512"
     height="512"
     fill="none"
     id="rect2" />
  <svg
     viewBox="0 0 512 512"
     data-svgdocument=""
     id="_ulBRnfcOj3VyDQUqUOEKd"
     class="fl-svgdocument"
     overflow="hidden"
     style="overflow:visible"
     version="1.1"
     width="100%"
     height="100%"
     transform="translate(3.5)">
    <rect
       fill="none"
       x="31.94459"
       y="0"
       width="100%"
       height="100%"
       id="rect4" />
    <defs
       id="_FS__db40CzrMADV5NKuuW"
       transform="matrix(2.1431543827056885, 0, 0, 2.1431543827056885, -72.2154769897461, -24.324373245239258)">
      <linearGradient
         id="o_f0e2g634c_3810"
         x1="56.353603"
         y1="37.105968"
         x2="86.575439"
         y2="37.105968"
         gradientTransform="scale(1.0745542,0.93061851)"
         gradientUnits="userSpaceOnUse">
        <stop
           id="_Uf-Qhgm0orNVLQFkSeLAv"
           offset="0%"
           stop-color="rgb(0, 136, 255)"
           stop-opacity="0.55" />
        <stop
           id="_7xsj3EiEHsXRJ-gMIEYK9"
           offset="100%"
           stop-color="rgb(0, 136, 255)"
           stop-opacity="0.55" />
      </linearGradient>
      <linearGradient
         id="o_f0e2g634c_3811"
         x1="31.419058"
         y1="20.484003"
         x2="61.641361"
         y2="20.484003"
         gradientTransform="scale(1.0745707,0.93060418)"
         gradientUnits="userSpaceOnUse">
        <stop
           id="_Eqn2leSTavmwOdUcS5xzu"
           offset="0%"
           stop-color="rgb(28, 158, 117)"
           stop-opacity="0.57" />
        <stop
           id="_j6kfcS4pun-P6NaI_RbGY"
           offset="100%"
           stop-color="rgb(28, 158, 117)"
           stop-opacity="0.57" />
      </linearGradient>
      <linearGradient
         id="o_f0e2g634c_3812"
         x1="31.419058"
         y1="86.973068"
         x2="61.641361"
         y2="86.973068"
         gradientTransform="scale(1.0745707,0.93060418)"
         gradientUnits="userSpaceOnUse">
        <stop
           id="_504xnfF9aJ8B3Zmo2TlcK"
           offset="0%"
           stop-color="rgb(95, 184, 57)"
           stop-opacity="0.65" />
        <stop
           id="_OBCZye785zlBm9IH2IMZo"
           offset="100%"
           stop-color="rgb(95, 184, 57)"
           stop-opacity="0.65" />
      </linearGradient>
    </defs>
    <g
       id="g435"
       transform="matrix(2.0757856,0,0,1.8919937,138.602,-36.204274)">
      <polygon
         id="_Wwk3iq3G0ezD5GoNqFBJV"
         points="31.327,79.531 39.445,65.469 31.327,51.406 15.089,51.406 6.97,65.469 15.089,79.531 "
         fill="#2c9e1c"
         transform="matrix(4.7260833,0,0,4.7260833,117.56499,-155.54579)" />
      <polygon
         id="_0Su4OwRjujkSFmNRpIXq7"
         points="41.881,64.063 58.119,64.063 66.238,50 58.119,35.938 41.881,35.938 33.762,50 "
         fill="#0088ff"
         transform="matrix(4.7260833,0,0,4.7260833,-84.765701,-82.372429)" />
      <polygon
         id="_wIBIpgORDj0vjaTbXIjdQ"
         points="6.97,34.531 15.089,48.594 31.327,48.594 39.445,34.531 31.327,20.469 15.089,20.469 "
         fill="#1c9e75"
         transform="matrix(4.7260833,0,0,4.7260833,193.78198,-9.9780998)" />
      <polygon
         id="_rqERDTKphf1ItlaxsFDHs"
         points="68.673,20.469 60.555,34.531 68.673,48.594 84.911,48.594 93.03,34.531 84.911,20.469 "
         fill="url(#o_f0e2g634c_3810)"
         transform="matrix(4.7260833,0,0,4.7260833,-97.398582,57.039616)"
         style="fill:url(#o_f0e2g634c_3810)" />
      <polygon
         id="_K8JfXVSBjM6xQeBzSqNNK"
         points="41.881,5 33.762,19.063 41.881,33.125 58.119,33.125 66.238,19.063 58.119,5 "
         fill="url(#o_f0e2g634c_3811)"
         transform="matrix(4.7260833,0,0,4.7260833,106.035,130.21812)"
         style="fill:url(#o_f0e2g634c_3811)" />
      <polygon
         id="_pkpd5opzEyxxECyPV-sej"
         points="41.881,66.875 33.762,80.938 41.881,95 58.119,95 66.238,80.938 58.119,66.875 "
         fill="url(#o_f0e2g634c_3812)"
         transform="matrix(4.7260833,0,0,4.7260833,-46.344532,-295.05682)"
         style="fill:url(#o_f0e2g634c_3812)" />
    </g>
  </svg>
</svg>
